<svg xmlns="http://www.w3.org/2000/svg" viewBox="0 0 1868 518.32"><defs><style>.cls-1{fill:#0062e2;}.cls-2{fill:#fff;}</style></defs><g id="Capa_2" data-name="Capa 2"><g id="Capa_1-2" data-name="Capa 1"><rect class="cls-1" width="1868" height="518.32"></rect><path class="cls-2" d="M1763.48,482.29c-48.37-6.1-109.75-12-177.51-16.91a.42.42,0,0,0-.43.37.41.41,0,0,0,.37.43c67.75,5,129.12,10.8,177.47,16.9h0a.4.4,0,0,0,.4-.35A.39.39,0,0,0,1763.48,482.29Z"></path><path class="cls-2" d="M1546.2,462.64c-69.43-4.54-138.87-7.68-176.9-8-52.79-.45-105.61-.35-157,.3a.39.39,0,0,0-.39.4.41.41,0,0,0,.4.4c51.39-.65,104.21-.75,157-.3,38,.33,107.44,3.47,176.86,8h0a.4.4,0,0,0,.4-.37A.4.4,0,0,0,1546.2,462.64Z"></path><path class="cls-2" d="M1203,455.05h0c-61.18.85-121.63,2.47-184.79,4.94a.39.39,0,0,0-.38.41.4.4,0,0,0,.4.39h0c63.16-2.47,123.6-4.09,184.77-4.94a.41.41,0,0,0,.4-.41A.4.4,0,0,0,1203,455.05Z"></path><path class="cls-2" d="M1008.86,460.36c-17.41.7-34.91,1.46-53.51,2.32a.4.4,0,0,0,0,.8h0c18.6-.86,36.1-1.62,53.5-2.32a.4.4,0,1,0,0-.8Z"></path><path class="cls-2" d="M946,463.12c-47.75,2.26-91.73,4.68-134.26,7l-29.24,1.61a.39.39,0,0,0-.37.42.4.4,0,0,0,.4.38h0L811.81,471c42.53-2.35,86.51-4.77,134.26-7a.41.41,0,0,0,.38-.42A.4.4,0,0,0,946,463.12Z"></path><path class="cls-2" d="M766.48,472.57c-69.29,3.74-122.93,6.25-176.23,7.19a.4.4,0,0,0,0,.8h0c53.3-.94,107-3.45,176.26-7.19a.4.4,0,0,0,.37-.43A.39.39,0,0,0,766.48,472.57Z"></path><path class="cls-2" d="M570.75,480h0c-27,.27-52.06.08-76.62-.59-17.34-.47-45.23-8.4-77.51-17.59-43.92-12.5-93.71-26.66-132.25-26.32-2.84,0-5.4.09-8,.2a.41.41,0,0,0-.39.42.41.41,0,0,0,.42.38c2.63-.11,5.17-.17,8-.2,38.47-.36,88.16,13.81,132,26.29,32.34,9.2,60.26,17.15,77.71,17.62s35,.71,53.36.71c7.62,0,15.37,0,23.29-.12a.4.4,0,0,0,.4-.41A.4.4,0,0,0,570.75,480Z"></path><path class="cls-2" d="M218.89,446.65c-12,4.38-22,9.47-31.73,14.4-25.72,13-47.93,24.31-92.14,13.51a.4.4,0,0,0-.19.78,138.41,138.41,0,0,0,32.84,4.35c24.49,0,41.26-8.5,59.85-17.93,9.69-4.91,19.71-10,31.65-14.36a.4.4,0,1,0-.28-.75Z"></path><path class="cls-2" d="M1610.61,371.78c-6-36.52-28-74.68-63.7-110.34l-.26-.25-.07-.07h0l-.2-.19a7,7,0,0,0-.52-.58,6.71,6.71,0,0,0-.64-.57l-.94-.93a.28.28,0,0,0-.08-.11s-.25-.25-.69-.64c-34.73-33.75-71.74-54.7-107.25-60.67-41.15-6.92-78.43,6-110.81,38.36,0,0-2.81,3.61-.49,6.4,2.13,2.56,32.14,32.16,33.44,33.44,0,0,1.21,1,4.5,1.13,1.52.08,3.38-.89,4.75-1.75a9.35,9.35,0,0,0-1.49,4.8,10.73,10.73,0,0,0,1.8,5.57l42,42a5,5,0,0,0,5.12,1,20.52,20.52,0,0,0,4.62-2.43,18.23,18.23,0,0,0-2,4.87,7.49,7.49,0,0,0,.59,4.87l.06.08,25.58,25.58-118.6,118.6a.39.39,0,0,0,0,.56.39.39,0,0,0,.28.12.38.38,0,0,0,.28-.12l118.6-118.6L1470.54,388c.07.06,1.79,1.3,4.94.4,1.93-.55,3.7-1.18,4.73-1.55a30.54,30.54,0,0,0-1.66,4.64,10,10,0,0,0,0,4.44.42.42,0,0,0,.11.18l42.2,42.19c.14.09,3.23,2.1,5.83,1.54a16.54,16.54,0,0,0,3.71-2.13c-.89,1.44-1.89,3.41-1.76,4.84a16.23,16.23,0,0,0,1.59,5.1.36.36,0,0,0,.07.1L1565,482.37a7.38,7.38,0,0,0,3.63.71c2.45,0,3.28-.75,3.37-.84C1604.34,449.86,1617.34,412.69,1610.61,371.78ZM1362.92,276c-2.94-.1-4-.92-4-.92-.31-.31-31.26-30.84-33.36-33.36-1.91-2.29.39-5.26.46-5.35,32.16-32.17,69.2-45,110.09-38.11,33.25,5.59,67.84,24.4,100.64,54.61a107.06,107.06,0,0,0-17.13-9.65c-15-6.76-40-14.21-74.19-11.29-41.35,3.53-75.79,40.46-76.42,41.15C1368.79,273.22,1365.26,276.05,1362.92,276Zm51.89,51.63a4.22,4.22,0,0,1-4.29-.77l-42-41.95a10.29,10.29,0,0,1-1.61-5.09c-.1-2.87,2.53-6,2.64-6.18.36-.39,34.7-37.4,75.92-40.91,60-5.12,92.5,21.56,97.43,26a1.28,1.28,0,0,0-1.13.28,1.43,1.43,0,0,0-.25,1.29c-11.57.87-47.71,5.52-78.33,30-36.71,29.37-42.38,33.81-42.43,33.85h0A24.05,24.05,0,0,1,1414.81,327.58Zm60.45,60c-2.75.79-4.19-.23-4.2-.23l-52.14-52.14a6.91,6.91,0,0,1-.48-4.28,23.13,23.13,0,0,1,2.91-6.23c.6-.48,7.39-5.83,42.38-33.82,30.64-24.52,66.85-29,78.09-29.86a6.64,6.64,0,0,0,1.39,2,6.41,6.41,0,0,0,2.15,1.47c-.81,11.12-5.28,47.46-29.87,78.19-27.72,34.64-34.09,42.3-34.76,43.1C1480.26,385.93,1477.91,386.82,1475.26,387.58ZM1526.5,439c-2.25.48-5.14-1.37-5.15-1.37h0l-42.07-42.07a9.43,9.43,0,0,1,0-3.94,32.67,32.67,0,0,1,2-5.33c.47-.56,6.55-7.84,34.8-43.16,24.61-30.76,29.19-67.09,30-78.49a1.25,1.25,0,0,0,1.1-.28,1.22,1.22,0,0,0,.29-1,96.83,96.83,0,0,1,13.9,22.68c6.72,14.87,14.11,39.73,11.21,73.75-3.51,41.12-40.35,75.41-40.9,75.91C1530.07,437,1527.31,438.83,1526.5,439Zm44.9,42.66a4.55,4.55,0,0,1-2.81.61,7.58,7.58,0,0,1-3.14-.54l-34.56-34.56a15.62,15.62,0,0,1-1.47-4.75c-.2-2.11,2.68-5.88,2.88-6.14.79-.74,37.61-35.13,41.13-76.42,4.18-49-12.73-79.75-21.65-92.28,32.34,33.92,52.37,69.86,58,104.32C1616.51,412.55,1603.58,449.48,1571.4,481.67Z"></path><path class="cls-2" d="M468.83,110.58,453.3,99.4c-15.73-11.32-38-15-72.31-11.87-20.25,1.84-38.26,15-53.53,39-.65,1-1.13,1.79-1.39,2.12s-.3.35-.39.45c0-.62.08-2,.21-3.69.33-4.12.89-11,.89-22,0-23.34-7.27-39.74-26.81-60.51C289.63,32,272.87,26.6,260.63,24a143.31,143.31,0,0,0-24.29-3,.35.35,0,0,0-.37.22.4.4,0,0,0,0,.42c2.34,3,22.75,29.35,26.84,29.35H263c2.82-.48,8.84,2.71,10.92,3.88l-7.29,2.81a.39.39,0,0,0-.2.58c2,3.27,19.46,31,25.34,31a1.68,1.68,0,0,0,.63-.12c3.86-1.74,7.88,4.15,9.07,6.08h-6.75a.39.39,0,0,0-.32.15.41.41,0,0,0-.07.34,96.16,96.16,0,0,0,5.61,15.14c3.46,7.78,5.36,17.2,6,20.56-5.3-5.37-33.24-32.5-63.86-41.41-35.11-10.22-84,31.22-86.07,33a.42.42,0,0,0-.13.42.41.41,0,0,0,.34.28l49.89,6.21a.38.38,0,0,0,.36-.14c.06-.08,6.32-7.93,10.84-9.25.37-.11.84-.19,1,0,.77,1-1.53,5.88-3.42,9a.4.4,0,0,0,.29.6l34.78,5a.42.42,0,0,0,.28-.07c.07-.05,7.68-5.17,12.7-5.17.68,0,.8.14.8.15.24.71-4.08,4-9.24,7.11a.4.4,0,0,0,.1.73,147,147,0,0,0,19.66,3.32,27.55,27.55,0,0,1,15.92,6.94c-6.27,0-41.73.34-63.69,3.58-20.46,3-29.65,11-40.3,20.17-2,1.73-4.07,3.53-6.26,5.31-13.46,11-26.62,48.55-27.18,50.14a.4.4,0,0,0,.1.41.39.39,0,0,0,.41.1c15.92-5.24,46.77-15.16,49.55-15.16,2.31,0,3.65-4.85,5.07-10,.89-3.21,1.89-6.85,2.79-7.15.07,0,.09,0,.12,0,1.09.87.76,9,.18,14.46a.41.41,0,0,0,.16.36.42.42,0,0,0,.39.05c9.05-3.6,32.74-13,33.62-13.23.69-.17.81-1.35,1.06-4.75.26-3.66.63-8.68,2.23-11.73.36-.68.65-.89.78-.86,1,.21,2.15,6,2.61,11.19a.42.42,0,0,0,.18.3.39.39,0,0,0,.35.05c.2-.07,5.15-1.78,14.76-10,7.62-6.53,19.8-8.94,24.59-9.66-6.72,9.53-27.34,43.09-45.58,117.1-21.49,87.2-31,192.56-31.06,193.61a.41.41,0,0,0,.11.31.39.39,0,0,0,.29.13h67.9a.42.42,0,0,0,.31-.15.39.39,0,0,0,.08-.34c-.26-1.2-25.35-121.5,0-212.85,19-68.37,24.93-88.46,26.74-94.25l9.8,45.08a.38.38,0,0,0,.27.29.36.36,0,0,0,.38-.08s4.24-3.66,7-2.15c.31.17.35.34.36.48,0,1.49-4.62,4.81-7.55,6.55a.39.39,0,0,0-.19.38l3.31,34a.43.43,0,0,0,.28.35.44.44,0,0,0,.43-.13s2.76-3.21,9.41-4.28a6.41,6.41,0,0,1,.9-.08,1.78,1.78,0,0,1,.41,0c.06.9-5.21,4.79-10.14,7.87a.4.4,0,0,0-.18.43l11.87,49.4a.42.42,0,0,0,.34.31.4.4,0,0,0,.4-.21c.23-.41,22.95-41.89,21.3-75.56-.86-17.62-9.24-35.43-16.13-47.28-2.53-4.35-5.05-8.23-7.27-11.47L364,212.88a.42.42,0,0,0,.37.13.41.41,0,0,0,.31-.26c.79-2.19,3.21-8.05,4.88-8.82a.51.51,0,0,1,.4-.05s.1,0,.18.21c.82,1.81-1.82,9.65-2.9,12.52a.43.43,0,0,0,0,.35l19,32.29a.45.45,0,0,0,.36.2.41.41,0,0,0,.34-.21c0-.08,4.39-8.17,7.53-9.48.13-.06.23-.07.25,0,.77.78-1.52,7.95-4.09,14.15a.42.42,0,0,0,0,.33l19.05,41.12a.39.39,0,0,0,.73,0c.1-.28,9.7-27.66,11.07-51.73,1.3-22.91-16.67-43-36.29-61.31-14.19-13.25-41.8-23-49.3-25.42,1.83,0,5.3,0,11.74.44,11.95.82,29,7.36,29.14,7.43a.39.39,0,0,0,.39-.06.41.41,0,0,0,.15-.37s-.52-4.3.52-6.11c.77-.23,4.36,4.11,7.86,9.42a.41.41,0,0,0,.21.16l27.33,8.83a.38.38,0,0,0,.39-.08.39.39,0,0,0,.12-.38s-1-4.74,2.32-7a1.14,1.14,0,0,1,1.11-.17c2.22.86,4.29,7.81,4.9,10.42a.4.4,0,0,0,.22.27l44.16,21.25a.4.4,0,0,0,.57-.33c0-.19.26-4.58-1.66-14.46-1.7-8.73-6.92-17.39-16.94-28.07-7.95-8.48-19.26-13.46-50.42-22.19-25.08-7-52.64,2.51-60.3,5.51,1.5-1.33,4.07-3.49,7.71-6.19,6.22-4.59,34.09-12,34.37-12.08a.41.41,0,0,0,.3-.35.43.43,0,0,0-.23-.4c-.52-.24-1.9-1.08-2-2-.05-.47.27-1,.94-1.45,2.28-1.66,7.39,1.82,9.17,3.3a.41.41,0,0,0,.32.08l32-5.79a.41.41,0,0,0,.32-.3.4.4,0,0,0-.14-.41c-1.78-1.41-4.3-3.9-4.08-4.77.05-.19.35-.28.58-.32,1.94-.32,5.36,1.86,7.85,3.46,1.83,1.18,2.81,1.79,3.4,1.79,1.39,0,38.76-4.37,40.35-4.56A.4.4,0,0,0,469,111,.42.42,0,0,0,468.83,110.58ZM283,269.39c-24.58,88.58-1.83,204.29-.1,212.75h-67c.69-7.5,10.22-108.77,31-193.06,18.59-75.4,39.61-108.7,45.85-117.39l17.09,3C308.17,180,302.39,199.35,283,269.39ZM428.29,115.06a13.21,13.21,0,0,1-3-1.66c-2.74-1.76-6.15-4-8.41-3.58-.85.14-1.14.58-1.22.91-.36,1.4,2.29,3.87,3.68,5l-31,5.61c-1-.83-7-5.41-10-3.21a2.45,2.45,0,0,0-1.27,2.18,3.3,3.3,0,0,0,1.58,2.15c-5,1.35-27.95,7.7-33.71,12a92.92,92.92,0,0,0-9.43,7.77.39.39,0,0,0-.05.51.42.42,0,0,0,.5.14c.32-.15,32.78-14.48,61.83-6.33,31,8.69,42.22,13.61,50.05,22,9.9,10.56,15.06,19.1,16.73,27.68a75.05,75.05,0,0,1,1.66,13.64l-43.43-20.9c-.39-1.61-2.47-9.68-5.35-10.79a1.92,1.92,0,0,0-1.84.25c-3,2.08-2.93,5.71-2.76,7.2L386.32,167c-1.24-1.87-6.51-9.67-8.45-9.67h0a.8.8,0,0,0-.69.43c-.9,1.58-.77,4.61-.66,5.94-3.17-1.17-18-6.51-28.77-7.25-11.88-.81-13.78-.31-14-.25a.4.4,0,0,0,0,.76c.35.1,34.61,10.64,50.91,25.85,19.47,18.18,37.31,38.11,36,60.69-1.22,21.44-9,45.55-10.7,50.56L391.47,254c1.37-3.32,5.33-13.37,3.84-14.86a1,1,0,0,0-1.12-.13c-2.9,1.21-6.47,7.24-7.59,9.22L368,216.72c.64-1.7,3.88-10.63,2.82-13a1.18,1.18,0,0,0-.63-.63,1.28,1.28,0,0,0-1,.07c-2,.91-4.29,6.6-5.07,8.64L327.86,169h0a.41.41,0,0,0-.57,0,.39.39,0,0,0,0,.56A171.35,171.35,0,0,1,342,191.12c6.84,11.76,15.17,29.45,16,46.91,1.5,30.66-17.38,67.92-20.71,74.21l-11.55-48.1c4.19-2.63,10.82-7.09,10.23-8.67-.26-.68-1.31-.61-2.19-.47a18.15,18.15,0,0,0-9.28,3.94l-3.21-32.86c1.45-.88,7.76-4.84,7.72-7.13a1.35,1.35,0,0,0-.78-1.17c-2.63-1.43-6.09.85-7.39,1.85L311,174.17a.39.39,0,0,0-.32-.31l-17.16-3.11h-.12l-.91.11h0c-4,.54-17.59,2.84-25.93,10-7.81,6.69-12.57,9-14,9.67-.3-3.16-1.24-11-3.21-11.37-.88-.18-1.45.9-1.63,1.26-1.69,3.21-2.06,8.32-2.33,12.05a23.37,23.37,0,0,1-.45,4c-1.05.26-28.5,11.18-33.11,13,.32-3.28,1.14-13.17-.55-14.52a.88.88,0,0,0-.87-.15c-1.24.41-2.07,3.19-3.31,7.69-1.16,4.19-2.6,9.4-4.3,9.4-3.39,0-42.76,12.89-49,14.95,2-5.51,14.42-39,26.65-49,2.2-1.79,4.28-3.59,6.29-5.32,10.54-9.12,19.65-17,39.89-20,24-3.55,64.13-3.59,64.53-3.59a.4.4,0,0,0,.3-.66,27.63,27.63,0,0,0-17.1-7.86,150.43,150.43,0,0,1-18.6-3.08c3.33-2,9.22-5.87,8.77-7.51-.2-.73-1.23-.73-1.57-.73-4.95,0-12,4.51-13,5.22l-34-4.86c1.2-2.06,4.32-7.77,3.06-9.4-.37-.48-1-.59-1.89-.33-4.42,1.3-10.11,8.12-11.1,9.34L157.17,123c6.41-5.34,51.75-41.81,84.64-32.24,33.65,9.79,64.1,41.79,64.4,42.12a.41.41,0,0,0,.47.08.4.4,0,0,0,.22-.42c0-.12-1.92-12.33-6.24-22a104.89,104.89,0,0,1-5.44-14.51h6.94a.4.4,0,0,0,.34-.2.39.39,0,0,0,0-.39c-.21-.39-5.2-9.37-10.45-7-3.35,1.51-16.81-17.5-24.7-30.12L275,55.39a.41.41,0,0,0,.25-.34.39.39,0,0,0-.19-.38c-.34-.21-8.47-5-12.19-4.4h-.09c-2.66,0-16.82-17-25.6-28.38a147.8,147.8,0,0,1,23.32,2.92c12.12,2.54,28.71,7.84,38.9,18.67,19.39,20.6,26.6,36.85,26.6,60,0,10.94-.56,17.81-.89,21.92-.29,3.61-.36,4.46.23,4.7s.87-.28,1.37-.9c.29-.37.75-1.09,1.45-2.19,15.12-23.83,32.93-36.84,52.92-38.65,34.08-3.1,56.21.52,71.77,11.72l14.69,10.58C453.83,112.23,429.34,115.06,428.29,115.06Z"></path><path class="cls-2" d="M997.72,117.93a.41.41,0,0,1-.39-.31c0-.11-2.77-11.19-8.92-14-11-5.08-19.5-4.46-33.54,2.46a.41.41,0,0,1-.54-.19.4.4,0,0,1,.19-.53c14.3-7,22.93-7.66,34.23-2.46,4.93,2.27,7.7,9.21,8.8,12.63.56-4,2.29-12.73,7.12-17.32,5.28-5,15.62-5,30.72.2a.4.4,0,1,1-.26.75c-14.79-5.06-24.86-5.19-29.91-.37-6,5.7-7.09,18.67-7.1,18.8a.39.39,0,0,1-.37.36Z"></path><path class="cls-2" d="M1115.41,83.88h0a.4.4,0,0,1-.38-.38c0-.16,0-1.33,0-3.07A18.32,18.32,0,0,0,1109.3,68c-8.58-7.73-17.71-9.76-36.68,4a.4.4,0,0,1-.56-.09.39.39,0,0,1,.09-.55c19.41-14.06,28.81-11.94,37.69-3.94a18.14,18.14,0,0,1,5.46,9.5c.52-4.63,1.89-10.57,5.41-13.92,2.8-2.67,10.73-6,32.37,1.37a.4.4,0,0,1-.26.76c-7.34-2.51-25.1-7.69-31.56-1.55-4.3,4.1-5.24,12.58-5.42,17a18.38,18.38,0,0,1,0,3A.41.41,0,0,1,1115.41,83.88Z"></path><path class="cls-2" d="M1083.83,143.12a.4.4,0,0,1-.4-.37c0-.16-.11-1.32-.12-3.06a18.39,18.39,0,0,0-6.31-12.17c-8.94-7.31-18.16-8.91-36.46,5.72a.4.4,0,1,1-.5-.62c18.72-15,28.22-13.29,37.46-5.72a18.15,18.15,0,0,1,5.91,9.23c.3-4.65,1.38-10.64,4.75-14.16,2.67-2.8,10.43-6.54,32.39-.16a.39.39,0,0,1,.28.49.41.41,0,0,1-.5.28c-7.45-2.16-25.44-6.5-31.6-.06-4.11,4.3-4.64,12.81-4.61,17.28a18.69,18.69,0,0,1,.11,2.95.4.4,0,0,1-.4.37Z"></path><path class="cls-2" d="M1286.59,294.35c-.71.86-.65,2.36.13,2.83s2.07-.2,2.56-1.15a1.89,1.89,0,0,0-.17-2.21A1.94,1.94,0,0,0,1286.59,294.35Z"></path><path class="cls-2" d="M1333.12,333.71a.36.36,0,0,0-.12-.28l-8.71-8.72a.42.42,0,0,0-.57,0l-5.29,5.29-2.21-13.49,0-.08a10.13,10.13,0,0,0,3.1.93,9.29,9.29,0,0,0,1.28.09,10.11,10.11,0,0,0,10-8.82,9.77,9.77,0,0,0-.24-3.81,10.07,10.07,0,0,0-3.83-16.41,10.09,10.09,0,0,0-14.66-10.1,10.8,10.8,0,0,0-15.69-1.14,13.75,13.75,0,0,0-4.54,8.7c0,.28,0,.57-.07.85a37.34,37.34,0,0,0-6.26,3.43,23.08,23.08,0,0,0-2.21,2.29,16.44,16.44,0,0,1-4.18,3.69l-1.2.7c-1.31.75-2.34,1.33-2.67,2.55-.57,2.15,1.79,4.39,3,5.09.1.16-.22,1-.45,1.56-1.17,3-3.6,9.26,5.39,16.38,2.84,2.24,6.79,2.86,10.07,2.86a26.64,26.64,0,0,0,3.32-.21l.11,23.68c-4.82-.63-14.35-1.52-18.74.58-4.72,2.27-8.39,6.64-10.36,9-.5.6-.89,1.07-1.16,1.34l.28.28-.31-.25-.72.9a.38.38,0,0,0-.13-.09,16.42,16.42,0,0,0-6.33-1.28,16.8,16.8,0,0,0-14,7.7l-2.88-10.85c.05-.1.12-.28.2-.49l1.36-.19a.41.41,0,0,0,.28-.18.4.4,0,0,0,0-.32s-.24-.86-.64-2.23c1.31-4,2.62-9.64,1.51-13.85a11.16,11.16,0,0,0-8-7.67c-5-15.22-6.09-15.43-6.6-15.51-7.62-1.29-18.7,3.08-20.71,3.92-.76-1-3.88-3.86-14.46-4.45-12.27-.69-17.36-.87-17.41-.88a.37.37,0,0,0-.33.16.39.39,0,0,0-.06.36c.46,1.48,4.11,10.77,7.9,20.33l-.43-.18c-2-1-6-.8-8.63.45a4.29,4.29,0,0,0-2.6,2.8,1.89,1.89,0,0,0,.4,1.62c1.53,1.94,7,2.32,8.5,2.39a42.2,42.2,0,0,1-.76,6.55c-.63,3.74-1.19,7,.91,8.75,2.8,2.37,8,4.11,9,4.45,1.1,2.73,11.14,27.35,18.67,43.82l-2-.25-.3,0,0,.08a116.26,116.26,0,0,0-13.47-.43c-5.46.22-8,.14-8.66.11-2.87-8-32.26-89.93-38.2-93.59-4.5-2.77-8.7.28-13.14,3.51a45.41,45.41,0,0,1-5.66,3.7c-2.54,1.31-12,14.26-23.53,30.91-6.25-4.75-8.56-3.34-14,0-1.46.89-3.11,1.92-5.16,3-10.11,5.42-72.22,62.35-76.31,67.31-3.09,3.75-8.42,6.72-13.57,9.58a97.54,97.54,0,0,0-8.37,5c-3.07,2.15-6.5,2.29-9.53,2.43-3.55.15-6.63.29-7.34,3.9h-25a.4.4,0,0,0-.4.4v40.56a.4.4,0,0,0,.4.4h9.32a.4.4,0,0,0,.4-.4V454.06l52.71-.18v28a.4.4,0,0,0,.4.4h9.32a.4.4,0,0,0,.4-.4V453.85l184-.61v28.68a.4.4,0,0,0,.4.4h9.32a.4.4,0,0,0,.4-.4V453L1333,334A.36.36,0,0,0,1333.12,333.71Zm-36.43-55.94a10,10,0,0,1,14.75,1.3.4.4,0,0,0,.51.1,9.29,9.29,0,0,1,13.74,9.35l0,.1a.4.4,0,0,0,.27.44,9.29,9.29,0,0,1,3.68,15.36.41.41,0,0,0-.11.39,9.12,9.12,0,0,1,.28,3.71,9.29,9.29,0,0,1-18,1.84.41.41,0,0,0-.38-.27h0a9.91,9.91,0,0,1-1.81,0,9.35,9.35,0,0,1-8.06-10.2.41.41,0,0,0-.33-.44c-5.74-1-9.59-6.93-8.76-13.43A13,13,0,0,1,1296.69,277.77Zm.42,47.17a8.71,8.71,0,0,0,1.73-.41.4.4,0,1,0-.32-.73c-1.2.52-10,2-15.1-2-4.09-3.24-5.71-6.22-6.16-8.79a9.11,9.11,0,0,0,4,1,7.28,7.28,0,0,0,4.15-1.23,7.38,7.38,0,0,0,2.81-3.85.39.39,0,0,0-.25-.5.41.41,0,0,0-.51.25,6.6,6.6,0,0,1-2.5,3.44,7.42,7.42,0,0,1-7.8,0,12.65,12.65,0,0,1,1.14-5.71c.48-1.23.82-2.12.11-2.55-1.08-.64-3-2.59-2.58-4.2.23-.89,1-1.35,2.28-2.05.38-.22.8-.45,1.23-.72a17.27,17.27,0,0,0,4.36-3.84,22.34,22.34,0,0,1,2.11-2.19,36.74,36.74,0,0,1,5.73-3.18c-.06,6.08,3.7,11.35,9.15,12.52a10.07,10.07,0,0,0,10.46,10.78,10,10,0,0,0,4.59,5.29.4.4,0,0,0-.29.45l2.31,14.06-18.47,18.46c-.2,0-.94-.16-2.07-.31a.43.43,0,0,0,0-.11ZM1259,360a15.43,15.43,0,0,1,6,1.19l-19.86,24.85a15.33,15.33,0,0,1-2.35-8.88C1242.7,367.71,1250,360,1259,360Zm-38.76-1.32,9.72-1.37a11.35,11.35,0,0,0,1.55,1.05,9.57,9.57,0,0,1,1.39.92c.82.87,1.28,12.2,1.61,20.48.12,2.81.23,5.54.34,7.91-2.17,1.36-4.56,3.78-7.29,7.36l-26.79-37Zm15.23,29.54a61.79,61.79,0,0,0,7.2-5.57,15.44,15.44,0,0,0,1.8,3.9.37.37,0,0,0,.13.12l-12.12,15.17-4.43-6.14C1230.81,392,1233.25,389.55,1235.42,388.24Zm9-20.39a18.56,18.56,0,0,0-2.51,9.33,20.06,20.06,0,0,0,.5,4.64,75.63,75.63,0,0,1-6.82,5.37c-.11-2.26-.21-4.81-.32-7.45-.5-12.52-.88-20.18-1.88-21a11,11,0,0,0-1.51-1c-.29-.17-.58-.34-.85-.52l10.37-1.47a.87.87,0,0,1-.08.17l0,.13Zm-.32-28.84c1,3.76-.14,8.89-1.14,12.25-1.07-3.69-2.85-9.72-4.73-15.72-.39-1.24-.76-2.4-1.11-3.49A10.27,10.27,0,0,1,1244.09,339Zm-14-22.61c1.6.65,7.88,20.1,13,38.25l-22.94,3.25h0l-10.29-37.63C1211.83,319.45,1222.79,315.17,1230.07,316.4Zm-35.07-.51c11.42.64,13.79,4,14,4.3l10.3,37.68-24.51-.83c-1.28-3.19-14.66-36.61-16.58-42C1179.83,315.1,1185.05,315.33,1195,315.89Zm-2.83,45.35-.18-.06c-.06,0-6-1.87-8.94-4.35-1.75-1.48-1.26-4.36-.64-8a41.21,41.21,0,0,0,.78-7.06v-.39h-.39c-1.88-.05-7-.51-8.3-2.11a1.09,1.09,0,0,1-.23-1,3.64,3.64,0,0,1,2.16-2.24c2.35-1.14,6.13-1.36,7.93-.46a8,8,0,0,0,1.17.45c4.11,10.35,8.26,20.71,8.6,21.54a.39.39,0,0,0,.35.25l5.23.18,32.69,45.17,34.34-43c.29-.3.69-.77,1.19-1.37,1.94-2.31,5.54-6.6,10.1-8.79,5-2.4,17.65-.63,20.54-.18L1224,424.45a50.08,50.08,0,0,1-5.5-4.69c-4.08-3.86-26-57.8-26.23-58.34Zm25.76,59.1a50.32,50.32,0,0,0,5.48,4.68l-11.21,11.21a1.73,1.73,0,0,0,0-.49l.37-.22s-.76-1.32-1.74-3.2c-.16-.32-.31-.66-.49-1-1.79-3.71-4.18-8.68-4.42-12.94-.15-5,2-10.74,2.57-12.06l2.12.26v-.12C1213.89,413.64,1216.67,419.15,1217.93,420.34Zm-23.46-14.47a119,119,0,0,1,13.09.4,30.26,30.26,0,0,0-2.49,10.92c0,.18,0,.36,0,.54v0c0,.21,0,.41,0,.61a13.91,13.91,0,0,0,.15,1.73c.61,4,3.15,9.35,4.91,12.7.74,1.57,1.43,3.14,1.27,3.47-4.28,5.53-8.6,4.53-8.78,4.48h-.1c-.16,0-8.17.14-17.54.21h-20.3c-1.8,0-3.42-.06-4.78-.1-10.62-.38-16-11.48-16.55-12.65l.8-5.63a.6.6,0,0,1,0,.12c1,4.29,5.48,4.28,18.89,4.28h2.24c14.72,0,20.36-19.92,20.65-21C1186.87,406,1189.42,406.08,1194.47,405.87ZM1208,440.4l-.56.56h-.58A8.54,8.54,0,0,0,1208,440.4Zm-139.45.56a107.19,107.19,0,0,1,.61-12c1.06-7.83,18.19-20.57,33.3-31.81,2.87-2.14,5.62-4.18,8.16-6.12,11,13.4,26.78,31.62,32.07,37.71.79,1.65,5,9.79,13,12.24Zm69.9-68c-2.3-1.57-4.57-3.12-6.76-4.63,2.84-3.82,4.69-6.41,5.68-9.1C1137.71,363.64,1138.08,368.27,1138.48,372.91Zm-7.24-4,7.33,5c1.73,19.39,4.09,38.71,5.16,46l-1.07,7.5c-5.84-6.73-20.84-24-31.38-36.91,6-4.61,10.7-8.53,12.6-11.32C1126.81,374.89,1129.26,371.59,1131.24,368.93Zm-2.09-49.42a45.89,45.89,0,0,0,5.76-3.76c4.4-3.2,8.21-6,12.25-3.47,4.69,2.88,26.89,62.4,38,93.57a42.38,42.38,0,0,1-4.48,10.16c-4.17,6.75-9.35,10.16-15.38,10.16h-2.24c-12.91,0-17.29,0-18.1-3.65-.76-3.4-8.64-66-7.5-89.36l-.8,0a231.56,231.56,0,0,0,.58,23.66c-.67,3.61-2.79,6.47-6.62,11.62-2,2.67-4.46,6-7.42,10.35-2.67,3.94-11.67,10.64-21.2,17.73-15.24,11.33-32.51,24.18-33.61,32.34a107.32,107.32,0,0,0-.62,12.13h-46.19c.49-3.14,6.39-4.44,6.47-4.46,2.23-.62,4.24-1.15,6.09-1.64,10.74-2.84,15.64-4.13,21.49-11.19,2.07-2.5,9-12.64,18-26l.11,0,0-.07,3.93-5.82C1097.55,362.19,1124.83,321.74,1129.15,319.51ZM1020.4,441a37.09,37.09,0,0,0-.7-5.2c-.52-2.8-1.05-5.69-.45-7.68s3.06-3.36,6.51-5.38a78.89,78.89,0,0,0,8.73-5.71c4.54-3.51,17.1-9.23,28.18-14.29,3.4-1.54,6.61-3,9.55-4.39-8.65,12.81-15.21,22.45-17.2,24.85-5.68,6.86-10.5,8.14-21.08,10.93-1.84.49-3.86,1-6.07,1.63-.29.07-6.67,1.48-7.09,5.24Zm-42-3.1c3-.13,6.7-.3,10-2.58,2.49-1.74,5.44-3.39,8.3-5,5.22-2.9,10.61-5.9,13.8-9.77,5.37-6.52,66.88-62.19,76.07-67.12,2.06-1.1,3.73-2.13,5.2-3,5.37-3.31,7.26-4.46,13.08,0-8.81,12.72-18.78,27.5-27.82,40.9l-3.88,5.75c-3.24,1.53-6.88,3.19-10.75,5-11.12,5.07-23.73,10.81-28.34,14.38a77.35,77.35,0,0,1-8.65,5.65c-3.6,2.11-6.21,3.64-6.87,5.84s-.1,5.16.43,8a37.27,37.27,0,0,1,.69,5.06H971.82C972.47,438.12,975,438,978.38,437.86ZM955,481.51h-8.52V454.09l8.52,0Zm62.83,0h-8.52V453.88l8.52,0Zm185.58,0V453.24l8.52,0v28.3Zm8.75-29.1-9.05,0-.1,0-.11,0-193.92.64h-.15l-62.35.21V441.76h74.33v0l.17,0h143.78c2.63,0,5.63.06,8.77.06,3.79,0,7.77,0,11.53-.06h22.6a.44.44,0,0,0,.29-.11L1324,325.56l8.15,8.15Z"></path><path class="cls-2" d="M692.3,168.51h0a19,19,0,0,0,4.41-.63,1.64,1.64,0,0,0,1.15-1.64c0-.16,0-.34.08-.54.18-1-.14-6.28-.17-6.88a.4.4,0,0,0-.43-.37.39.39,0,0,0-.37.42,63.69,63.69,0,0,1,.18,6.68c0,.22-.06.42-.08.6-.06.57-.08.74-.67,1a18.77,18.77,0,0,1-4.13.56.39.39,0,0,0-.38.42A.4.4,0,0,0,692.3,168.51Z"></path><path class="cls-2" d="M689.22,176.27h0a.4.4,0,0,0,.4-.39.4.4,0,0,0-.39-.41,5.37,5.37,0,0,1-3.78-2.47.4.4,0,1,0-.68.43A6.15,6.15,0,0,0,689.22,176.27Z"></path><path class="cls-2" d="M687.32,162.19a1.54,1.54,0,1,0-.08-3.07,1.52,1.52,0,0,0-1.49,1.57A1.54,1.54,0,0,0,687.32,162.19Z"></path><path class="cls-2" d="M702.32,164.82a1.54,1.54,0,1,0-1.58-1.49A1.54,1.54,0,0,0,702.32,164.82Z"></path><path class="cls-2" d="M683.65,219.62a1.69,1.69,0,1,0,1.68,1.68A1.69,1.69,0,0,0,683.65,219.62Z"></path><path class="cls-2" d="M682,241.36a1.69,1.69,0,0,0,0,3.37,1.69,1.69,0,1,0,0-3.37Z"></path><path class="cls-2" d="M680.28,263.18a1.69,1.69,0,1,0,1.68,1.69A1.69,1.69,0,0,0,680.28,263.18Z"></path><path class="cls-2" d="M668,289.82h11.5l.19-7-11.5,0Zm1-6.2,9.9,0-.15,5.38h-9.89Z"></path><path class="cls-2" d="M527.2,280.12a1.69,1.69,0,1,0,1.69,1.69A1.69,1.69,0,0,0,527.2,280.12Z"></path><path class="cls-2" d="M804.82,248.54a1.68,1.68,0,1,0-1.68-1.68A1.68,1.68,0,0,0,804.82,248.54Z"></path><path class="cls-2" d="M881.3,244.78H857.59a27,27,0,0,0,3.72-1.23,27.95,27.95,0,0,0,11.55-9.06s1.22-1.69,1.63-2.44l.13-.25c.29-.52.9-1.61,1.08-2,.43-.91,1.8-4.47,2-5.31a5,5,0,0,0,1-2.83c.07-1.38-.11-3.63-2.51-7.17a26.67,26.67,0,0,0-6.42-6.46c-.78-.52-1.56-1-2.34-1.51,1.32-2.35,2.35-4.16,2.61-4.52.59-.81,6.32-5.19,10-7.94a.4.4,0,1,0-.48-.64c-1,.7-9.34,6.94-10.18,8.11-.29.39-1.35,2.25-2.65,4.57-8.71-5.36-16.8-8.1-24.06-8.14-5.06,0-7.2.95-8.77,2a5.22,5.22,0,0,0-2.17,2.83c-.26.43-.74,1.33-1.12,2l-.42.78a29.46,29.46,0,0,0-3.1,8.23,26.29,26.29,0,0,0-.56,4.15c0,.28,0,3.83.15,5.08a25.91,25.91,0,0,0,2.16,7.8c.24.54.5,1.06.78,1.57-4.77-.16-19.61,9.63-21.16,10.65L744.77,241c-1.64-3.07-21.11-39.4-25.56-46.67-4.32-7.09-26.64-6.44-31.3-6.23l0-.73.25-2.07a22.36,22.36,0,0,0,8.3-.76c5.54-1.37,7.31-5.55,9-9.6l.31-.73c1.89-4.4,3.06-17.47,2.92-19.59h0a22.38,22.38,0,0,0,.22-3.16,21.31,21.31,0,0,0-7.53-16.33,6.53,6.53,0,0,0-1.55-1.49,18.53,18.53,0,0,0-6.94-2.77,19.74,19.74,0,0,0-4.51-.53c-11.32,0-20.53,9.47-20.53,21.12,0,.49,0,1,.05,1.5-1.82,0-3.47,1.11-4.91,3.3a5.7,5.7,0,0,0-1,4.89,7.17,7.17,0,0,0,3.63,3.9l-2.63,20.24c-2.41.33-20.11,2.79-29.82,4.62-10.43,2-49.52,54-51.83,57.09l-58.31,32.13c-2.06,0-27,.49-30,3.45-.26.36-6.53,8.89-6.89,11.41l-.08.49c-.35,2.31-1,6.6.72,8.43a2.78,2.78,0,0,0,2.1.85l.39,0c4.33-.4,7.09-10.56,7.56-12.4,3.26-.44,11.28-1.13,13.3.54a1,1,0,0,1,.41.76c.05,1.2-2.19,1.43-4.56,1.68-3.22.33-6.86.71-7.24,3.62a2.44,2.44,0,0,0,.78,2.25c2.9,2.68,13.35.85,21-.76,6.51-1.38,77.87-30,83-33.26,5-3.17,21.26-23,24.74-27.24l3.91,51.82-12.37,67.44-71.88,71.6-.27.26.25.29a108.36,108.36,0,0,0,12.27,11.45l-1.26,1.63-2.19,1.29a19.57,19.57,0,0,1,.16-3.47l.09-.57-.56.11A55.61,55.61,0,0,0,530,454.47l-.35.36,66.66,42.32,0-.68c0-.15.68-15.1-13.18-22-12.87-6.44-9.89-16.83-9.54-17.9l3.21-3.57c9.54,5.17,20.81,9.18,32.86,9.18a52.83,52.83,0,0,0,7.38-.51l.19,0,39.28-64.73,27.23-52.43,15.65,13L730.53,454l.12.36.36-.09a116.07,116.07,0,0,0,26.38-11.11l8.74,10,.84,2.39a20,20,0,0,1-3.38-.82l-.54-.2v.57a55.57,55.57,0,0,0,8.28,28.58l.28.41L826.16,427l-.66-.17c-.15,0-14.68-3.62-24.18,8.61-8.84,11.37-18.45,6.4-19.43,5.86l-7.72-10.37a59.58,59.58,0,0,0,16.18-24.07l.06-.18-39.8-64.38-31.15-49.8-.19.11v-43c1.21,8.14,3.67,21.41,6.88,21.75,4.17.48,82.18-9.53,86.28-10.05.94.15,10.84,1.7,17,1s7.93-1.05,12.38-4.89c2.69-2.31,4.06-4.67,4-6.81a5.29,5.29,0,0,0-2.47-4.09,6.63,6.63,0,0,0-2.93-.89H881.3ZM832.78,237a25,25,0,0,0,3.88,3.63,24.31,24.31,0,0,0,6.26,3.39c.17.06,1.41.46,2.32.72H823.81c2.94-2.84,6.74-6.93,7.43-9.75C831.73,235.72,832.23,236.4,832.78,237Zm1.6-36.41c1-.66,2.84-1.93,8.32-1.87,7.12,0,15.07,2.75,23.67,8l-1.17,2.12a32.9,32.9,0,0,0-6.27-3.59,60.85,60.85,0,0,0-9.37-3.14,19.72,19.72,0,0,0-6-.35,8.45,8.45,0,0,0-3.93,1.26,4.22,4.22,0,0,0-1.89,2.68,5.62,5.62,0,0,0,.49,3.56,13.83,13.83,0,0,0,2.93,4.13,31.16,31.16,0,0,0,6.64,5.12,42.49,42.49,0,0,0,6.45,3.1c.14.06,3.74,1.27,5.39,1.63a25.45,25.45,0,0,0,5.32.65q.55,0,1.08,0a11,11,0,0,0,4.29-1.1,4.3,4.3,0,0,0,2.25-4.91,9.69,9.69,0,0,0-1.78-3.74,17,17,0,0,0-3.18-3.39c-.5-.42-1.09-.9-1.75-1.4l1.2-2.18c.76.47,1.52,1,2.28,1.48a25.43,25.43,0,0,1,6.21,6.24c2.27,3.34,2.44,5.41,2.37,6.68a4.23,4.23,0,0,1-2,3.48,10.1,10.1,0,0,1-4.43,1.46,23.87,23.87,0,0,1-5.48,0,39.35,39.35,0,0,1-6.53-1.27c-1-.29-2.08-.67-3.07-1l-1.51-.55c-.84-.28-3.9-1.63-4.63-2a56,56,0,0,1-7-3.89,43.53,43.53,0,0,1-4.9-3.82,23.63,23.63,0,0,1-4.51-5.29,9.08,9.08,0,0,1-1.41-3.71A4.3,4.3,0,0,1,834.38,200.63Zm26.38,17.2a.45.45,0,0,0,.19,0,.42.42,0,0,0,.36-.21c1.11-2,2.66-4.87,4.14-7.57.62.47,1.17.92,1.64,1.31a16.13,16.13,0,0,1,3,3.25,9.08,9.08,0,0,1,1.65,3.43,3.48,3.48,0,0,1-1.82,4,10.14,10.14,0,0,1-4,1,22.39,22.39,0,0,1-6.18-.6c-1.59-.34-5.09-1.53-5.28-1.6a40.81,40.81,0,0,1-6.32-3,30.19,30.19,0,0,1-6.47-5,13.15,13.15,0,0,1-2.78-3.9,4.8,4.8,0,0,1-.44-3.07,3.41,3.41,0,0,1,1.55-2.19,7.64,7.64,0,0,1,3.57-1.13c.58,0,1.17-.08,1.76-.08a20.43,20.43,0,0,1,4,.42,60,60,0,0,1,9.22,3.09,32.9,32.9,0,0,1,6.19,3.56c-2.06,3.72-4,7.37-4.21,7.67A.41.41,0,0,0,860.76,217.83ZM827.51,223c-.14-1.22-.17-4.67-.15-4.95a26.23,26.23,0,0,1,.54-4,28.89,28.89,0,0,1,3-8c.1-.18.25-.46.42-.79.08-.13.15-.28.23-.42,0,.11,0,.21,0,.33a9.81,9.81,0,0,0,1.51,4,25,25,0,0,0,4.66,5.47,45.09,45.09,0,0,0,5,3.88,55.88,55.88,0,0,0,7.13,3.95c.66.31,3.79,1.69,4.7,2,.51.17,1,.35,1.5.54,1,.37,2.06.75,3.13,1.05a40,40,0,0,0,6.67,1.29,27.84,27.84,0,0,0,3,.17,20,20,0,0,0,2.62-.16,10.73,10.73,0,0,0,4.77-1.58l.17-.12c-.47,1.29-1.17,3.1-1.51,3.81-.17.36-.78,1.48-1.05,1.95l-.14.26c-.37.69-1.55,2.33-1.56,2.34a27.12,27.12,0,0,1-11.22,8.8,25.8,25.8,0,0,1-6.67,1.78,22.53,22.53,0,0,1-5.31,0c-1-.12-1.94-.27-2.86-.46-.7-.14-2.76-.8-3-.87a23.47,23.47,0,0,1-9.8-6.8,23.27,23.27,0,0,1-2.09-2.81,1.9,1.9,0,0,0-.15-.46,1.16,1.16,0,0,0-.39-.46,25,25,0,0,1-3.25-9.8ZM808.2,261l-6.76.85v-18.2l6.76.23ZM676.53,200.73h0a.39.39,0,0,0-.19-.06h-.08l-.1,0h0L664,207.1l1.17-14.74,11.27,7.9a.4.4,0,0,0,.41,0l12.12-5.89-1.17,14.74Zm.13-1.26L665,191.31a.41.41,0,0,0-.4,0,.44.44,0,0,0-.23.33l-.52,6.55a6.66,6.66,0,0,1-2.49-1.89l2.11-9.21c1,2.26,4,6.57,11.85,6.49,6.84-.09,10.07-2.75,11.53-4.73a.43.43,0,0,0,.22.09l-.23,5.62Zm24.54-63c.13,2.16-5.66,4.89-11.71,5.51a16.66,16.66,0,0,1-6.48-.61c-1.82-.46-3.39-.86-5.48,0-4.13,1.71-6,6.6-7.08,9.52a10.79,10.79,0,0,1-1,2.24h0c-.45-.62-.71-4,.34-7.68a20.49,20.49,0,0,1,13.86-13.68,18.67,18.67,0,0,1,4.86-.62,22.49,22.49,0,0,1,4.31.44,19.46,19.46,0,0,1,8.06,4A1.89,1.89,0,0,1,701.2,136.5Zm-34.93,27.92s-2.76-1.21-3.46-3.53a5,5,0,0,1,.92-4.21c1.4-2.11,3-3.09,4.64-2.92l.27,0h0l.37.09a1.12,1.12,0,0,0,.24.13l.18,0h0a9.83,9.83,0,0,1,3.78,3.12.39.39,0,0,0,.33.18.48.48,0,0,0,.23-.07.41.41,0,0,0,.1-.56,10.78,10.78,0,0,0-3.7-3.22,13,13,0,0,0,1-2.26c1.12-3,2.82-7.49,6.64-9.07,1.84-.76,3.22-.41,5,0a17.77,17.77,0,0,0,6.76.63c5.87-.61,12.25-3.33,12.41-6.14a20.57,20.57,0,0,1,6.21,14.77,21.68,21.68,0,0,1-.22,3.08c0,.14-.68,14.23-2.88,19.35l-.31.73c-1.71,4-3.33,7.86-8.48,9.13-5.49,1.35-8.34.69-8.37.68l-.43-.11-.25,2.07a.37.37,0,0,0-.07.14c0,.06-1.79,6.1-11.87,6.23h-.26c-9,0-11-6.06-11.24-7.06l2.73-21.14ZM528.12,296l-4.45-16.3,6.09-3.36,4.83,17.24C532.2,294.5,530,295.31,528.12,296Zm-7.77,2.62c-4.29.91-17.32,3.67-20.26,1a1.71,1.71,0,0,1-.53-1.57c.3-2.28,3.61-2.63,6.53-2.93,2.76-.28,5.36-.55,5.28-2.5a1.81,1.81,0,0,0-.7-1.34c-2.77-2.3-13.73-.75-14.19-.68a.38.38,0,0,0-.33.3c-.78,3.25-3.53,11.74-6.93,12.05a2.09,2.09,0,0,1-1.82-.58c-1.46-1.55-.82-5.74-.52-7.76l.08-.49c.28-1.94,5-8.63,6.7-11,2.34-2.26,21.6-3,29.23-3.18l4.47,16.38C523.83,297.57,521.34,298.42,520.35,298.63ZM628.7,237.5a.39.39,0,0,0-.43.13c-.2.24-19.86,24.43-25.19,27.84-3.83,2.46-44.75,19.08-67.74,27.84L530.48,276l51.38-28.31a.34.34,0,0,0,.12-.12c.41-.54,41.18-54.93,51.4-56.85,9.36-1.75,26.18-4.11,29.49-4.57l-2.33,10.14a.41.41,0,0,0,0,.27c0,.06.71,1.31,3.22,2.5l-.7,8.75a.41.41,0,0,0,.18.37.43.43,0,0,0,.41,0L676,201.67c2.12,15.34,2.74,26.94,1.82,34.46-1.21,10-5.8,41.9-6.18,44.58-22.91,0-36.43-.56-39.46-.7L629,237.85A.43.43,0,0,0,628.7,237.5Zm4.23,52.86-.72-9.54c3.33.14,17.56.7,41.53.7,24.7,0,41.51,2.49,44.73,3v7.93ZM582.8,475.16c11.68,5.83,12.68,17.57,12.74,20.56l-64.62-41a54.94,54.94,0,0,1,25.08-13c-.22,2-.6,8.75,3.59,12.75,2.88,2.74,7.29,3.56,13.12,2.44C572.1,459.44,570.76,469.13,582.8,475.16ZM573.06,456c-5.81,1.21-10.15.5-12.92-2.13-2.37-2.27-3.16-5.57-3.37-8.24l2.61-1.54,1.4-1.79a110.55,110.55,0,0,0,15.33,10.31Zm82.78-59.47-39.06,64.38c-34.82,4.76-65-27.44-68-30.8l71.7-71.42.09-.09,12.36-67.4L709.57,293ZM802,435.94c8-10.3,19.72-9,22.66-8.46l-52.89,55.34a55,55,0,0,1-7.87-27.15c1.92.61,8.47,2.31,13.2-1,3.26-2.29,4.93-6.46,5-12.39C784.44,443.37,793.68,446.58,802,435.94Zm-20.73,5.8c0,5.93-1.5,10.06-4.62,12.25-2.69,1.89-6.09,2-8.74,1.7l-1-2.86-8.76-10.08a92.08,92.08,0,0,0,15.48-11.26Zm-31.29-99,39.6,64.06c-11.57,33.17-54,45.43-58.35,46.61l-31-96.33,0-.11-16-13.23,26.31-50.66,8.4.2a.19.19,0,0,0,.13,0Zm-23.7-72.2c-2.81-.29-5.76-16.71-7-27a.39.39,0,0,0-.42-.35.4.4,0,0,0-.38.4v40.13a301.08,301.08,0,0,0-44.73-3h-1.33c.48-3.31,5-34.64,6.18-44.48.91-7.53.32-19.07-1.77-34.29l11,8.28a.41.41,0,0,0,.24.08.32.32,0,0,0,.16,0,.39.39,0,0,0,.24-.33l1.28-16.16a.4.4,0,0,0-.17-.36.39.39,0,0,0-.4,0l-1.54.75.21-5.25c4.37-.19,26.6-.82,30.66,5.83,4.61,7.54,25.43,46.45,25.64,46.84a.41.41,0,0,0,.34.21l56.13,1.87V262C777.79,264.84,729.34,270.84,726.23,270.53ZM845,250.6c.08,1.89-1.19,4-3.69,6.17-4.29,3.69-5.75,4-11.95,4.7s-16.74-1-16.85-1h-.11l-3.39.43v-17.2c5-3.29,17.88-11.25,21-10.43l.17.07c.13.21.25.44.38.65.45,3-7.46,10.53-10.71,13.3a.4.4,0,0,0,.33.7c6.62-1.19,19.87-2.91,22.68-.88A4.51,4.51,0,0,1,845,250.6ZM821.43,247c.43-.38,1-.85,1.53-1.39h9.78C828.28,245.9,823.69,246.6,821.43,247Z"></path></g></g></svg>