<svg xmlns="http://www.w3.org/2000/svg" viewBox="0 0 1193.52 518.32"><defs><style>.cls-1{fill:#0062e2;}.cls-2{fill:#fff;}</style></defs><g id="Capa_2" data-name="Capa 2"><g id="Capa_1-2" data-name="Capa 1"><rect class="cls-1" x="1.75" width="1191.76" height="518.32"/><path class="cls-2" d="M1192,470.21c-19.51-1.68-39.82-3.3-60.74-4.83a.41.41,0,0,0-.42.37.4.4,0,0,0,.37.43c21,1.53,41.3,3.15,60.85,4.84A5.52,5.52,0,0,1,1192,470.21Z"/><path class="cls-2" d="M1091.52,462.64c-69.43-4.54-138.86-7.68-176.9-8-52.78-.45-105.61-.35-157,.3a.39.39,0,0,0-.4.4.41.41,0,0,0,.41.4c51.39-.65,104.21-.75,157-.3,38,.33,107.43,3.47,176.85,8h0a.39.39,0,0,0,.39-.37A.4.4,0,0,0,1091.52,462.64Z"/><path class="cls-2" d="M748.3,455.05h0c-61.18.85-121.62,2.47-184.79,4.94a.39.39,0,0,0-.38.41.41.41,0,0,0,.4.39h0c63.15-2.47,123.59-4.09,184.77-4.94a.4.4,0,0,0,.39-.41A.39.39,0,0,0,748.3,455.05Z"/><path class="cls-2" d="M554.18,460.36c-17.4.7-34.9,1.46-53.5,2.32a.4.4,0,0,0-.38.42.4.4,0,0,0,.39.38h0c18.6-.86,36.1-1.62,53.51-2.32a.4.4,0,0,0,.38-.42A.41.41,0,0,0,554.18,460.36Z"/><path class="cls-2" d="M491.36,463.12c-47.76,2.26-91.74,4.68-134.27,7l-29.23,1.61a.4.4,0,0,0,0,.8h0L357.14,471c42.53-2.35,86.51-4.77,134.25-7a.41.41,0,0,0,.38-.42A.39.39,0,0,0,491.36,463.12Z"/><path class="cls-2" d="M311.81,472.57c-69.29,3.74-122.94,6.25-176.23,7.19a.41.41,0,0,0-.4.41.41.41,0,0,0,.4.39h0c53.31-.94,107-3.45,176.26-7.19a.41.41,0,0,0,.38-.43A.4.4,0,0,0,311.81,472.57Z"/><path class="cls-2" d="M116.07,480h0c-27,.27-52.06.08-76.63-.59-10-.27-23.53-3-39.38-7.08a5.52,5.52,0,0,1-.06.81c15.84,4,29.37,6.8,39.42,7.07,17.37.47,35,.71,53.36.71q11.43,0,23.29-.12a.4.4,0,1,0,0-.8Z"/><path class="cls-2" d="M1155.93,371.78c-6-36.52-28-74.68-63.7-110.34-.08-.08-.17-.16-.25-.25l-.07-.07h0l-.2-.19a7.13,7.13,0,0,0-.53-.58,6.71,6.71,0,0,0-.64-.57l-.94-.93a.41.41,0,0,0-.07-.11l-.69-.64c-34.74-33.75-71.74-54.7-107.25-60.67-41.16-6.92-78.43,6-110.82,38.36,0,0-2.81,3.61-.49,6.4,2.14,2.56,32.15,32.16,33.44,33.44,0,0,1.21,1,4.5,1.13,1.53.08,3.39-.89,4.75-1.75a9.35,9.35,0,0,0-1.49,4.8,10.69,10.69,0,0,0,1.81,5.57l42,42a5,5,0,0,0,5.11,1,20.52,20.52,0,0,0,4.62-2.43,18.57,18.57,0,0,0-2,4.87,7.49,7.49,0,0,0,.59,4.87.27.27,0,0,0,.07.08l25.57,25.58-118.6,118.6a.4.4,0,0,0,0,.56.39.39,0,0,0,.28.12.4.4,0,0,0,.29-.12l118.6-118.6L1015.86,388c.07.06,1.79,1.3,4.95.4,1.92-.55,3.69-1.18,4.72-1.55a29.56,29.56,0,0,0-1.65,4.64,9.78,9.78,0,0,0,0,4.44.4.4,0,0,0,.1.18l42.21,42.19c.13.09,3.22,2.1,5.83,1.54a16.74,16.74,0,0,0,3.7-2.13c-.89,1.44-1.89,3.41-1.76,4.84a16.52,16.52,0,0,0,1.59,5.1.39.39,0,0,0,.08.1l34.68,34.67a7.27,7.27,0,0,0,3.62.71c2.46,0,3.28-.75,3.37-.84C1149.66,449.86,1162.67,412.69,1155.93,371.78ZM908.24,276c-2.94-.1-4-.92-4-.92-.32-.31-31.26-30.84-33.37-33.36-1.91-2.29.4-5.26.47-5.35,32.16-32.17,69.19-45,110.08-38.11,33.26,5.59,67.84,24.4,100.65,54.61a107.51,107.51,0,0,0-17.13-9.65c-15-6.76-40-14.21-74.19-11.29C949.41,235.41,915,272.34,914.34,273,914.11,273.22,910.58,276.05,908.24,276Zm51.9,51.63a4.25,4.25,0,0,1-4.3-.77l-42-41.95a10.29,10.29,0,0,1-1.61-5.09c-.1-2.87,2.54-6,2.65-6.18.35-.39,34.7-37.4,75.92-40.91,60-5.12,92.5,21.56,97.43,26a1.28,1.28,0,0,0-1.13.28,1.37,1.37,0,0,0-.25,1.29c-11.57.87-47.72,5.52-78.34,30-36.71,29.37-42.37,33.81-42.43,33.85h0A23.91,23.91,0,0,1,960.14,327.58Zm60.45,60c-2.75.79-4.19-.23-4.21-.23l-52.13-52.14a6.88,6.88,0,0,1-.49-4.28,23.44,23.44,0,0,1,2.91-6.23c.61-.48,7.39-5.83,42.38-33.82,30.65-24.52,66.85-29,78.1-29.86a6.59,6.59,0,0,0,1.38,2,6.51,6.51,0,0,0,2.15,1.47c-.8,11.12-5.28,47.46-29.87,78.19-27.71,34.64-34.08,42.3-34.75,43.1C1025.58,385.93,1023.23,386.82,1020.59,387.58ZM1071.83,439c-2.25.48-5.14-1.37-5.16-1.37h0l-42.06-42.07a9.26,9.26,0,0,1,.05-3.94,32.67,32.67,0,0,1,2-5.33c.47-.56,6.54-7.84,34.8-43.16,24.6-30.76,29.18-67.09,30-78.49a1.09,1.09,0,0,0,1.38-1.28,97.1,97.1,0,0,1,13.91,22.68c6.71,14.87,14.1,39.73,11.2,73.75-3.51,41.12-40.35,75.41-40.9,75.91C1075.39,437,1072.64,438.83,1071.83,439Zm44.89,42.66a4.55,4.55,0,0,1-2.81.61,7.44,7.44,0,0,1-3.13-.54l-34.56-34.56a15.55,15.55,0,0,1-1.48-4.75c-.19-2.11,2.68-5.88,2.88-6.14.8-.74,37.62-35.13,41.14-76.42,4.18-49-12.73-79.75-21.66-92.28,32.34,33.92,52.37,69.86,58,104.32C1161.83,412.55,1148.91,449.48,1116.72,481.67Z"/><path class="cls-2" d="M543,117.93a.39.39,0,0,1-.38-.31c0-.11-2.78-11.19-8.92-14-11-5.08-19.5-4.46-33.55,2.46a.4.4,0,0,1-.53-.19.39.39,0,0,1,.18-.53c14.3-7,22.94-7.66,34.23-2.46,4.93,2.27,7.71,9.21,8.81,12.63.55-4,2.28-12.73,7.11-17.32,5.29-5,15.63-5,30.73.2a.4.4,0,1,1-.26.75c-14.8-5.06-24.86-5.19-29.92-.37-6,5.7-7.09,18.67-7.1,18.8a.39.39,0,0,1-.36.36Z"/><path class="cls-2" d="M660.73,83.88h0a.4.4,0,0,1-.39-.38c0-.16-.05-1.33,0-3.07A18.35,18.35,0,0,0,654.63,68c-8.59-7.73-17.72-9.76-36.69,4a.4.4,0,0,1-.56-.09.39.39,0,0,1,.09-.55c19.41-14.06,28.81-11.94,37.69-3.94a18.14,18.14,0,0,1,5.46,9.5c.52-4.63,1.89-10.57,5.42-13.92,2.8-2.67,10.72-6,32.37,1.37a.4.4,0,0,1,.25.51.41.41,0,0,1-.51.25c-7.34-2.51-25.11-7.69-31.56-1.55-4.31,4.1-5.24,12.58-5.43,17a18.38,18.38,0,0,1,0,3A.41.41,0,0,1,660.73,83.88Z"/><path class="cls-2" d="M629.15,143.12a.39.39,0,0,1-.39-.37c0-.16-.12-1.32-.13-3.06a18.34,18.34,0,0,0-6.31-12.17c-8.94-7.31-18.15-8.91-36.46,5.72a.4.4,0,0,1-.5-.62c18.73-15,28.22-13.29,37.47-5.72a18.13,18.13,0,0,1,5.9,9.23c.3-4.65,1.39-10.64,4.75-14.16,2.67-2.8,10.43-6.54,32.4-.16a.4.4,0,0,1,.27.49.4.4,0,0,1-.49.28c-7.46-2.16-25.45-6.5-31.6-.06-4.11,4.3-4.64,12.81-4.62,17.28a16.13,16.13,0,0,1,.11,2.95.39.39,0,0,1-.39.37Z"/><path class="cls-2" d="M831.91,294.35c-.7.86-.65,2.36.13,2.83s2.07-.2,2.56-1.15a1.91,1.91,0,0,0-.16-2.21A2,2,0,0,0,831.91,294.35Z"/><path class="cls-2" d="M878.44,333.71a.36.36,0,0,0-.12-.28l-8.71-8.72a.42.42,0,0,0-.57,0L863.75,330l-2.21-13.49a.19.19,0,0,0,0-.08,10.13,10.13,0,0,0,3.1.93,9.32,9.32,0,0,0,1.29.09,10.1,10.1,0,0,0,9.77-12.63,10,10,0,0,0,2.69-5.66,10.12,10.12,0,0,0-6.52-10.75,10.09,10.09,0,0,0-8.76-11.15,10,10,0,0,0-5.9,1.05,10.8,10.8,0,0,0-15.69-1.14,13.76,13.76,0,0,0-4.55,8.7c0,.28-.05.57-.07.85a37.34,37.34,0,0,0-6.26,3.43,24.28,24.28,0,0,0-2.21,2.29,16.44,16.44,0,0,1-4.18,3.69c-.42.26-.83.49-1.2.7-1.31.75-2.34,1.33-2.66,2.55-.57,2.15,1.78,4.39,2.94,5.09a4.16,4.16,0,0,1-.44,1.56c-1.17,3-3.61,9.26,5.39,16.38,2.83,2.24,6.79,2.86,10.07,2.86a26.59,26.59,0,0,0,3.31-.21l.12,23.68c-4.82-.63-14.36-1.52-18.74.58-4.72,2.27-8.39,6.64-10.37,9-.5.6-.89,1.07-1.16,1.34l.28.28-.31-.25-.72.9a.3.3,0,0,0-.13-.09,16.35,16.35,0,0,0-6.33-1.28,16.78,16.78,0,0,0-14,7.7l-2.88-10.85c0-.1.11-.28.2-.49l1.35-.19a.39.39,0,0,0,.28-.18.37.37,0,0,0,0-.32s-.24-.86-.63-2.23c1.31-4,2.61-9.64,1.51-13.85a11.17,11.17,0,0,0-8.06-7.67c-5-15.22-6.09-15.43-6.59-15.51-7.63-1.29-18.7,3.08-20.72,3.92-.76-1-3.88-3.86-14.45-4.45-12.27-.69-17.36-.87-17.41-.88a.36.36,0,0,0-.33.16.39.39,0,0,0-.07.36c.46,1.48,4.11,10.77,7.91,20.33l-.43-.18c-2-1-6-.8-8.64.45a4.24,4.24,0,0,0-2.59,2.8,1.85,1.85,0,0,0,.39,1.62c1.53,1.94,7,2.32,8.51,2.39a43.45,43.45,0,0,1-.76,6.55c-.64,3.74-1.19,7,.9,8.75,2.8,2.37,8,4.11,9,4.45,1.11,2.73,11.14,27.35,18.67,43.82l-2-.25-.3,0,0,.08a116.26,116.26,0,0,0-13.47-.43c-5.46.22-8,.14-8.66.11-2.87-8-32.26-89.93-38.2-93.59-4.5-2.77-8.7.28-13.14,3.51a44.69,44.69,0,0,1-5.66,3.7c-2.53,1.31-12,14.26-23.53,30.91-6.24-4.75-8.56-3.34-14,0-1.46.89-3.11,1.92-5.15,3-10.12,5.42-72.23,62.35-76.32,67.31-3.09,3.75-8.41,6.72-13.56,9.58a96.22,96.22,0,0,0-8.38,5c-3.07,2.15-6.5,2.29-9.53,2.43-3.55.15-6.63.29-7.34,3.9h-25a.4.4,0,0,0-.4.4v40.56a.4.4,0,0,0,.4.4h9.32a.39.39,0,0,0,.4-.4V454.06l52.71-.18v28a.4.4,0,0,0,.4.4h9.32a.4.4,0,0,0,.4-.4V453.85l184-.61v28.68a.4.4,0,0,0,.4.4h9.32a.4.4,0,0,0,.4-.4V453l120.3-119A.36.36,0,0,0,878.44,333.71ZM842,277.77a10,10,0,0,1,14.75,1.3.4.4,0,0,0,.51.1A9.28,9.28,0,0,1,871,288.52s0,.1,0,.1a.41.41,0,0,0,.27.44,9.31,9.31,0,0,1,6.31,10,9.19,9.19,0,0,1-2.63,5.36.4.4,0,0,0-.1.39,9.3,9.3,0,0,1-17.74,5.55.39.39,0,0,0-.37-.27h0a10,10,0,0,1-1.82,0,9.35,9.35,0,0,1-8.06-10.2.4.4,0,0,0-.32-.44c-5.75-1-9.59-6.93-8.76-13.43A13,13,0,0,1,842,277.77Zm.42,47.17a8.87,8.87,0,0,0,1.74-.41.39.39,0,0,0,.2-.52.39.39,0,0,0-.52-.21c-1.21.52-10.05,2-15.11-2-4.09-3.24-5.71-6.22-6.16-8.79a9.15,9.15,0,0,0,4,1,7.34,7.34,0,0,0,4.16-1.23,7.5,7.5,0,0,0,2.81-3.85.41.41,0,0,0-.26-.5.4.4,0,0,0-.5.25,6.66,6.66,0,0,1-2.5,3.44,7.42,7.42,0,0,1-7.8,0,12.79,12.79,0,0,1,1.13-5.71c.48-1.23.83-2.12.11-2.55-1.08-.64-3-2.59-2.58-4.2.24-.89,1-1.35,2.29-2.05.38-.22.79-.45,1.23-.72A17.27,17.27,0,0,0,829,293a22.16,22.16,0,0,1,2.1-2.19,36.74,36.74,0,0,1,5.73-3.18c-.05,6.08,3.71,11.35,9.16,12.52a10.14,10.14,0,0,0,8.78,10.71,10.33,10.33,0,0,0,1.67.07,10,10,0,0,0,4.59,5.29.41.41,0,0,0-.29.45l2.31,14.06-18.47,18.46c-.19,0-.94-.16-2.06-.31,0,0,0-.07,0-.11ZM804.27,360a15.43,15.43,0,0,1,6,1.19l-19.86,24.85a15.33,15.33,0,0,1-2.34-8.88C788,367.71,795.31,360,804.27,360Zm-38.75-1.32,9.71-1.37a12,12,0,0,0,1.55,1.05,10.29,10.29,0,0,1,1.4.92c.82.87,1.27,12.2,1.61,20.48.11,2.81.22,5.54.34,7.91-2.17,1.36-4.57,3.78-7.3,7.36l-26.78-37Zm15.23,29.54a63.56,63.56,0,0,0,7.2-5.57,15.41,15.41,0,0,0,1.79,3.9.49.49,0,0,0,.13.12l-12.11,15.17-4.44-6.14C776.14,392,778.57,389.55,780.75,388.24Zm9-20.39a18.56,18.56,0,0,0-2.5,9.33,20.08,20.08,0,0,0,.49,4.64,77.31,77.31,0,0,1-6.81,5.37c-.12-2.26-.22-4.81-.32-7.45-.51-12.52-.89-20.18-1.89-21a10.45,10.45,0,0,0-1.51-1c-.29-.17-.58-.34-.85-.52l10.37-1.47a1.78,1.78,0,0,1-.07.17l-.06.13ZM789.41,339c1,3.76-.13,8.89-1.14,12.25-1.07-3.69-2.84-9.72-4.73-15.72-.39-1.24-.76-2.4-1.11-3.49A10.25,10.25,0,0,1,789.41,339Zm-14-22.61c1.61.65,7.88,20.1,13,38.25l-22.94,3.25h0l-10.29-37.63C757.15,319.45,768.11,315.17,775.39,316.4Zm-35.07-.51c11.42.64,13.79,4,14,4.3l10.3,37.68L740.09,357c-1.27-3.19-14.66-36.61-16.58-42C725.15,315.1,730.38,315.33,740.32,315.89Zm-2.82,45.35-.18-.06c-.06,0-6-1.87-9-4.35-1.75-1.48-1.26-4.36-.63-8a42.27,42.27,0,0,0,.77-7.06v-.39h-.39c-1.88-.05-7-.51-8.29-2.11a1.09,1.09,0,0,1-.24-1,3.64,3.64,0,0,1,2.16-2.24c2.35-1.14,6.13-1.36,7.93-.46a8.52,8.52,0,0,0,1.17.45c4.11,10.35,8.27,20.71,8.6,21.54a.4.4,0,0,0,.36.25L745,358l32.69,45.17,34.33-43c.3-.3.69-.77,1.2-1.37,1.93-2.31,5.53-6.6,10.09-8.79,5-2.4,17.65-.63,20.54-.18l-74.58,74.59a49.67,49.67,0,0,1-5.51-4.69c-4.08-3.86-26-57.8-26.23-58.34Zm25.75,59.1a52.48,52.48,0,0,0,5.48,4.68l-11.2,11.21a2.26,2.26,0,0,0,0-.49l.37-.22s-.76-1.32-1.74-3.2c-.15-.32-.31-.66-.49-1-1.78-3.71-4.17-8.68-4.41-12.94-.16-5,2-10.74,2.56-12.06l2.12.26v-.12C759.21,413.64,762,419.15,763.25,420.34Zm-23.46-14.47a119,119,0,0,1,13.09.4,30.26,30.26,0,0,0-2.49,10.92c0,.18,0,.36,0,.54v0c0,.21,0,.41,0,.61a13.92,13.92,0,0,0,.14,1.73c.61,4,3.16,9.35,4.91,12.7.74,1.57,1.43,3.14,1.27,3.47-4.27,5.53-8.59,4.53-8.78,4.48h-.1c-.16,0-8.17.14-17.54.21H710c-1.79,0-3.42-.06-4.78-.1-10.61-.38-16-11.48-16.55-12.65l.8-5.63s0,.09,0,.12c1,4.29,5.48,4.28,18.89,4.28h2.24c14.72,0,20.35-19.92,20.64-21C732.19,406,734.74,406.08,739.79,405.87Zm13.56,34.53-.56.56h-.58A8.54,8.54,0,0,0,753.35,440.4ZM613.91,441a106.66,106.66,0,0,1,.6-12c1.06-7.83,18.19-20.57,33.3-31.81C650.68,395,653.43,393,656,391c11,13.4,26.78,31.62,32.07,37.71.79,1.65,5.05,9.79,13.05,12.24Zm69.9-68L677,368.28c2.84-3.82,4.7-6.41,5.69-9.1C683,363.64,683.4,368.27,683.81,372.91Zm-7.25-4,7.34,5c1.72,19.39,4.08,38.71,5.15,46l-1.07,7.5c-5.83-6.73-20.84-24-31.37-36.91,6-4.61,10.7-8.53,12.59-11.32C672.13,374.89,674.59,371.59,676.56,368.93Zm-2.09-49.42a45.18,45.18,0,0,0,5.76-3.76c4.4-3.2,8.21-6,12.25-3.47,4.7,2.88,26.89,62.4,38,93.57A42.38,42.38,0,0,1,726,416c-4.17,6.75-9.34,10.16-15.37,10.16H708.4c-12.92,0-17.3,0-18.11-3.65-.76-3.4-8.63-66-7.5-89.36l-.8,0a231.56,231.56,0,0,0,.58,23.66c-.67,3.61-2.79,6.47-6.62,11.62-2,2.67-4.46,6-7.41,10.35-2.67,3.94-11.67,10.64-21.2,17.73-15.24,11.33-32.52,24.18-33.62,32.34a106.79,106.79,0,0,0-.61,12.13H566.92c.48-3.14,6.38-4.44,6.46-4.46,2.23-.62,4.25-1.15,6.09-1.64,10.74-2.84,15.65-4.13,21.49-11.19,2.07-2.5,9-12.64,18-26l.11,0,0-.07,3.93-5.82C642.88,362.19,670.16,321.74,674.47,319.51ZM565.72,441a35.66,35.66,0,0,0-.7-5.2c-.51-2.8-1-5.69-.45-7.68s3.06-3.36,6.51-5.38a78.89,78.89,0,0,0,8.73-5.71c4.54-3.51,17.1-9.23,28.19-14.29,3.39-1.54,6.61-3,9.54-4.39-8.65,12.81-15.2,22.45-17.19,24.85-5.68,6.86-10.51,8.14-21.08,10.93-1.85.49-3.87,1-6.08,1.63-.29.07-6.67,1.48-7.09,5.24Zm-42-3.1c3-.13,6.69-.3,9.95-2.58,2.49-1.74,5.45-3.39,8.31-5,5.21-2.9,10.6-5.9,13.79-9.77,5.37-6.52,66.88-62.19,76.07-67.12,2.07-1.1,3.73-2.13,5.2-3,5.37-3.31,7.27-4.46,13.09,0-8.81,12.72-18.79,27.5-27.82,40.9L618.42,397c-3.24,1.53-6.89,3.19-10.75,5-11.13,5.07-23.74,10.81-28.35,14.38a78.26,78.26,0,0,1-8.64,5.65c-3.61,2.11-6.21,3.64-6.87,5.84s-.11,5.16.42,8a35.75,35.75,0,0,1,.69,5.06H517.15C517.79,438.12,520.3,438,523.71,437.86Zm-23.42,43.65h-8.52V454.09l8.52,0Zm62.83,0H554.6V453.88l8.52,0Zm185.58,0V453.24l8.52,0v28.3Zm8.76-29.1-9.06,0-.1,0-.1,0-193.92.64h-.16l-62.35.21V441.76H566.1v0l.18,0H710.05c2.63,0,5.63.06,8.78.06,3.78,0,7.76,0,11.52-.06H753a.41.41,0,0,0,.28-.11L869.33,325.56l8.14,8.15Z"/><path class="cls-2" d="M237.63,168.51h0a19,19,0,0,0,4.41-.63,1.65,1.65,0,0,0,1.15-1.64,4,4,0,0,1,.07-.54,65.76,65.76,0,0,0-.17-6.88.4.4,0,0,0-.8.05,63.69,63.69,0,0,1,.18,6.68c0,.22-.06.42-.08.6-.06.57-.08.74-.67,1a18.69,18.69,0,0,1-4.13.56.4.4,0,0,0,0,.8Z"/><path class="cls-2" d="M234.54,176.27h0a.41.41,0,0,0,.4-.39.4.4,0,0,0-.4-.41,5.39,5.39,0,0,1-3.78-2.47.41.41,0,0,0-.55-.13.42.42,0,0,0-.13.56A6.17,6.17,0,0,0,234.54,176.27Z"/><path class="cls-2" d="M232.65,162.19a1.54,1.54,0,1,0-1.58-1.5A1.54,1.54,0,0,0,232.65,162.19Z"/><path class="cls-2" d="M247.64,164.82a1.54,1.54,0,1,0-1.58-1.49A1.54,1.54,0,0,0,247.64,164.82Z"/><path class="cls-2" d="M229,219.62a1.69,1.69,0,1,0,1.68,1.68A1.68,1.68,0,0,0,229,219.62Z"/><path class="cls-2" d="M227.29,241.36A1.69,1.69,0,1,0,229,243,1.69,1.69,0,0,0,227.29,241.36Z"/><path class="cls-2" d="M225.6,263.18a1.69,1.69,0,1,0,1.69,1.69A1.69,1.69,0,0,0,225.6,263.18Z"/><path class="cls-2" d="M213.35,289.82h11.5l.18-7-11.49,0Zm1-6.2,9.9,0-.14,5.38h-9.9Z"/><path class="cls-2" d="M72.53,280.12a1.69,1.69,0,1,0,0,3.37,1.69,1.69,0,0,0,0-3.37Z"/><path class="cls-2" d="M350.14,248.54a1.68,1.68,0,1,0-1.68-1.68A1.69,1.69,0,0,0,350.14,248.54Z"/><path class="cls-2" d="M426.62,244.78h-23.7a27.33,27.33,0,0,0,3.71-1.23,28.1,28.1,0,0,0,11.56-9.06s1.21-1.69,1.62-2.44l.14-.25c.29-.52.89-1.61,1.07-2,.43-.91,1.8-4.47,2-5.31a5,5,0,0,0,1-2.83c.08-1.38-.1-3.63-2.5-7.17A26.43,26.43,0,0,0,415.1,208c-.78-.52-1.56-1-2.33-1.51,1.31-2.35,2.35-4.16,2.61-4.52.58-.81,6.31-5.19,10-7.94a.4.4,0,0,0,.09-.56.39.39,0,0,0-.56-.08c-1,.7-9.34,6.94-10.19,8.11-.28.39-1.35,2.25-2.64,4.57-8.72-5.36-16.8-8.1-24.06-8.14-5.07,0-7.2.95-8.77,2a5.19,5.19,0,0,0-2.18,2.83c-.26.43-.74,1.33-1.12,2-.17.33-.32.61-.42.78a29.77,29.77,0,0,0-3.1,8.23,27.51,27.51,0,0,0-.56,4.15c0,.28,0,3.83.15,5.08a26.2,26.2,0,0,0,2.16,7.8c.25.54.51,1.06.78,1.57-4.76-.16-19.61,9.63-21.16,10.65L290.09,241c-1.64-3.07-21.11-39.4-25.55-46.67-4.33-7.09-26.65-6.44-31.31-6.23l0-.73.25-2.07a22.36,22.36,0,0,0,8.3-.76c5.54-1.37,7.32-5.55,9-9.6l.31-.73c1.89-4.4,3.07-17.47,2.93-19.59h0a22.39,22.39,0,0,0,.23-3.16,21.34,21.34,0,0,0-7.53-16.33,6.53,6.53,0,0,0-1.55-1.49,18.67,18.67,0,0,0-6.94-2.77,19.83,19.83,0,0,0-4.52-.53c-11.32,0-20.53,9.47-20.53,21.12,0,.49,0,1,.05,1.5-1.81,0-3.46,1.11-4.91,3.3a5.74,5.74,0,0,0-1,4.89A7.17,7.17,0,0,0,211,165l-2.62,20.24c-2.42.33-20.11,2.79-29.82,4.62-10.43,2-49.53,54-51.84,57.09L68.41,279.11c-2.06,0-27,.49-30,3.45-.27.36-6.53,8.89-6.9,11.41l-.07.49c-.35,2.31-1,6.6.72,8.43a2.76,2.76,0,0,0,2.09.85l.39,0c4.33-.4,7.1-10.56,7.56-12.4,3.27-.44,11.28-1.13,13.3.54a1,1,0,0,1,.41.76c0,1.2-2.19,1.43-4.56,1.68-3.22.33-6.86.71-7.24,3.62a2.47,2.47,0,0,0,.78,2.25c2.9,2.68,13.36.85,21-.76,6.5-1.38,77.86-30,83-33.26,5-3.17,21.26-23,24.75-27.24l3.9,51.82-12.37,67.44-71.88,71.6L93,430l.24.29a109.44,109.44,0,0,0,12.27,11.45l-1.26,1.63L102,444.69a20.22,20.22,0,0,1,.15-3.47l.09-.57-.56.11a55.68,55.68,0,0,0-26.41,13.71l-.34.36,66.65,42.32,0-.68c0-.15.68-15.1-13.17-22-12.87-6.44-9.89-16.83-9.55-17.9l3.22-3.57c9.53,5.17,20.8,9.18,32.85,9.18a53.07,53.07,0,0,0,7.39-.51l.19,0,39.27-64.73,27.23-52.43,15.65,13L275.86,454l.11.36.36-.09a116.24,116.24,0,0,0,26.39-11.11l8.73,10,.84,2.39a20.7,20.7,0,0,1-3.38-.82l-.53-.2v.57a55.57,55.57,0,0,0,8.28,28.58l.28.41L371.48,427l-.66-.17c-.15,0-14.67-3.62-24.18,8.61-8.83,11.37-18.45,6.4-19.42,5.86l-7.73-10.37a59.58,59.58,0,0,0,16.18-24.07l.06-.18-39.79-64.38-31.16-49.8-.18.11v-43c1.21,8.14,3.66,21.41,6.87,21.75,4.17.48,82.18-9.53,86.28-10.05.94.15,10.85,1.7,17,1s7.92-1.05,12.38-4.89c2.68-2.31,4.06-4.67,4-6.81a5.26,5.26,0,0,0-2.47-4.09,6.58,6.58,0,0,0-2.92-.89h40.9ZM378.11,237a24.93,24.93,0,0,0,3.87,3.63,24.47,24.47,0,0,0,6.26,3.39c.18.06,1.41.46,2.33.72H369.13c2.94-2.84,6.74-6.93,7.44-9.75A24.87,24.87,0,0,0,378.11,237Zm1.6-36.41c1-.66,2.83-1.93,8.31-1.87,7.12,0,15.08,2.75,23.68,8-.39.68-.78,1.4-1.18,2.12a33.1,33.1,0,0,0-6.26-3.59,60.84,60.84,0,0,0-9.38-3.14,19.72,19.72,0,0,0-6-.35,8.45,8.45,0,0,0-3.93,1.26,4.22,4.22,0,0,0-1.89,2.68,5.62,5.62,0,0,0,.49,3.56,14,14,0,0,0,2.93,4.13,31,31,0,0,0,6.65,5.12,41.94,41.94,0,0,0,6.44,3.1c.14.06,3.74,1.27,5.39,1.63a25.46,25.46,0,0,0,5.33.65q.54,0,1.08,0a11.08,11.08,0,0,0,4.29-1.1,4.31,4.31,0,0,0,2.25-4.91,9.87,9.87,0,0,0-1.79-3.74,16.67,16.67,0,0,0-3.17-3.39c-.51-.42-1.1-.9-1.76-1.4.41-.75.82-1.48,1.21-2.18.75.47,1.51,1,2.28,1.48a25.61,25.61,0,0,1,6.21,6.24c2.26,3.34,2.43,5.41,2.37,6.68a4.24,4.24,0,0,1-2.05,3.48,10.05,10.05,0,0,1-4.43,1.46,23.78,23.78,0,0,1-5.47,0,39.46,39.46,0,0,1-6.54-1.27c-1-.29-2.07-.67-3.07-1l-1.51-.55c-.83-.28-3.9-1.63-4.62-2a55.28,55.28,0,0,1-7-3.89,43.67,43.67,0,0,1-4.91-3.82,23.9,23.9,0,0,1-4.51-5.29,9.05,9.05,0,0,1-1.4-3.71A4.29,4.29,0,0,1,379.71,200.63Zm26.38,17.2a.41.41,0,0,0,.19,0,.4.4,0,0,0,.35-.21c1.11-2,2.66-4.87,4.15-7.57.61.47,1.16.92,1.63,1.31a15.85,15.85,0,0,1,3,3.25,8.94,8.94,0,0,1,1.65,3.43,3.48,3.48,0,0,1-1.81,4,10.21,10.21,0,0,1-4,1,22.46,22.46,0,0,1-6.19-.6c-1.59-.34-5.09-1.53-5.27-1.6a40.92,40.92,0,0,1-6.33-3,30.19,30.19,0,0,1-6.47-5,13.34,13.34,0,0,1-2.78-3.9,4.93,4.93,0,0,1-.44-3.07,3.45,3.45,0,0,1,1.55-2.19,7.68,7.68,0,0,1,3.57-1.13c.59,0,1.17-.08,1.77-.08a20.43,20.43,0,0,1,4,.42,60,60,0,0,1,9.21,3.09,32.58,32.58,0,0,1,6.19,3.56c-2.05,3.72-4,7.37-4.2,7.67A.39.39,0,0,0,406.09,217.83ZM372.83,223c-.14-1.22-.17-4.67-.15-4.95a25.14,25.14,0,0,1,.55-4,28.54,28.54,0,0,1,3-8l.43-.79.22-.42c0,.11,0,.21,0,.33a10,10,0,0,0,1.52,4,24.9,24.9,0,0,0,4.65,5.47,45.24,45.24,0,0,0,5,3.88,56.5,56.5,0,0,0,7.12,3.95c.66.31,3.79,1.69,4.71,2,.5.17,1,.35,1.49.54,1,.37,2.07.75,3.14,1.05a39.78,39.78,0,0,0,6.67,1.29,27.54,27.54,0,0,0,3,.17,20,20,0,0,0,2.62-.16,10.78,10.78,0,0,0,4.78-1.58l.16-.12c-.47,1.29-1.17,3.1-1.5,3.81-.17.36-.79,1.48-1.05,1.95l-.14.26c-.38.69-1.56,2.33-1.57,2.34a27.12,27.12,0,0,1-11.22,8.8,25.7,25.7,0,0,1-6.67,1.78,22.53,22.53,0,0,1-5.31,0c-1-.12-1.93-.27-2.86-.46-.7-.14-2.75-.8-3-.87a23.47,23.47,0,0,1-9.8-6.8,23.2,23.2,0,0,1-2.08-2.81,2.47,2.47,0,0,0-.15-.46,1.27,1.27,0,0,0-.4-.46c-.41-.73-.81-1.46-1.16-2.24A25.19,25.19,0,0,1,372.83,223Zm-19.3,38-6.77.85v-18.2l6.77.23ZM221.85,200.73h0a.42.42,0,0,0-.19-.06h-.09l-.1,0h0l-12.16,6.41,1.17-14.74,11.28,7.9a.38.38,0,0,0,.4,0l12.12-5.89-1.17,14.74Zm.13-1.26-11.65-8.16a.41.41,0,0,0-.4,0,.42.42,0,0,0-.23.33l-.52,6.55a6.74,6.74,0,0,1-2.5-1.89l2.11-9.21c1,2.26,4,6.57,11.85,6.49,6.85-.09,10.07-2.75,11.53-4.73a.43.43,0,0,0,.22.09l-.23,5.62Zm24.54-63c.14,2.16-5.66,4.89-11.7,5.51a16.71,16.71,0,0,1-6.49-.61c-1.82-.46-3.39-.86-5.48,0-4.13,1.71-6,6.6-7.08,9.52a11.46,11.46,0,0,1-1,2.24h-.05c-.45-.62-.71-4,.34-7.68a20.49,20.49,0,0,1,13.86-13.68,18.69,18.69,0,0,1,4.87-.62,22.39,22.39,0,0,1,4.3.44,19.56,19.56,0,0,1,8.07,4A1.87,1.87,0,0,1,246.52,136.5Zm-34.93,27.92s-2.76-1.21-3.45-3.53a4.94,4.94,0,0,1,.92-4.21c1.39-2.11,2.95-3.09,4.64-2.92l.26,0h0l.36.09a1.19,1.19,0,0,0,.25.13l.18,0h0a9.66,9.66,0,0,1,3.78,3.12.4.4,0,0,0,.33.18.48.48,0,0,0,.23-.07.4.4,0,0,0,.1-.56,10.6,10.6,0,0,0-3.69-3.22,13.12,13.12,0,0,0,1-2.26c1.13-3,2.83-7.49,6.64-9.07,1.85-.76,3.23-.41,5,0a17.82,17.82,0,0,0,6.77.63c5.86-.61,12.25-3.33,12.4-6.14a20.53,20.53,0,0,1,6.22,14.77,21.71,21.71,0,0,1-.23,3.08c0,.14-.68,14.23-2.87,19.35l-.31.73c-1.72,4-3.34,7.86-8.49,9.13-5.48,1.35-8.33.69-8.36.68l-.44-.11-.25,2.07a.61.61,0,0,0-.07.14c0,.06-1.79,6.1-11.87,6.23h-.25c-9,0-11-6.06-11.25-7.06l2.74-21.14ZM73.44,296,69,279.71l6.09-3.36,4.83,17.24C77.53,294.5,75.35,295.31,73.44,296Zm-7.77,2.62c-4.28.91-17.32,3.67-20.26,1a1.68,1.68,0,0,1-.52-1.57c.29-2.28,3.6-2.63,6.52-2.93,2.76-.28,5.37-.55,5.28-2.5a1.81,1.81,0,0,0-.7-1.34c-2.77-2.3-13.72-.75-14.19-.68a.39.39,0,0,0-.33.3c-.77,3.25-3.53,11.74-6.92,12.05a2.12,2.12,0,0,1-1.83-.58c-1.46-1.55-.82-5.74-.51-7.76l.07-.49c.28-1.94,5-8.63,6.71-11,2.33-2.26,21.59-3,29.23-3.18l4.47,16.38C69.16,297.57,66.66,298.42,65.67,298.63ZM174,237.5a.39.39,0,0,0-.43.13c-.2.24-19.85,24.43-25.19,27.84-3.83,2.46-44.74,19.08-67.73,27.84L75.8,276l51.38-28.31a.49.49,0,0,0,.13-.12c.41-.54,41.18-54.93,51.4-56.85,9.36-1.75,26.18-4.11,29.48-4.57l-2.33,10.14a.36.36,0,0,0,0,.27c0,.06.7,1.31,3.21,2.5l-.7,8.75a.41.41,0,0,0,.18.37.43.43,0,0,0,.41,0l12.3-6.48c2.12,15.34,2.73,26.94,1.82,34.46-1.22,10-5.8,41.9-6.19,44.58-22.91,0-36.42-.56-39.46-.7l-3.17-42.16A.4.4,0,0,0,174,237.5Zm4.23,52.86-.72-9.54c3.34.14,17.57.7,41.54.7,24.69,0,41.51,2.49,44.73,3v7.93Zm-50.12,184.8c11.67,5.83,12.68,17.57,12.74,20.56l-64.63-41a54.93,54.93,0,0,1,25.09-13c-.22,2-.61,8.75,3.58,12.75,2.88,2.74,7.3,3.56,13.12,2.44C117.42,459.44,116.08,469.13,128.13,475.16ZM118.38,456c-5.8,1.21-10.15.5-12.91-2.13-2.38-2.27-3.17-5.57-3.38-8.24l2.61-1.54,1.4-1.79a111.15,111.15,0,0,0,15.33,10.31Zm82.78-59.47L162.1,460.87c-34.82,4.76-65-27.44-68-30.8l71.71-71.42.09-.09,12.35-67.4L254.9,293Zm146.11,39.45c8-10.3,19.72-9,22.66-8.46L317,482.82a55,55,0,0,1-7.87-27.15c1.92.61,8.47,2.31,13.21-1,3.25-2.29,4.92-6.46,5-12.39C329.77,443.37,339,446.58,347.27,435.94Zm-20.73,5.8c0,5.93-1.5,10.06-4.62,12.25-2.69,1.89-6.08,2-8.74,1.7l-1-2.86-8.76-10.08a91.68,91.68,0,0,0,15.48-11.26Zm-31.28-99,39.59,64.06c-11.57,33.17-54,45.43-58.35,46.61l-31-96.33,0-.11-16-13.23,26.32-50.66,8.4.2s.08,0,.12,0Zm-23.7-72.2c-2.81-.29-5.77-16.71-7-27a.4.4,0,0,0-.79.05v40.13a301.22,301.22,0,0,0-44.73-3h-1.33c.47-3.31,5-34.64,6.17-44.48.92-7.53.32-19.07-1.77-34.29l11,8.28a.43.43,0,0,0,.24.08.35.35,0,0,0,.17,0,.4.4,0,0,0,.23-.33l1.28-16.16a.38.38,0,0,0-.17-.36.38.38,0,0,0-.4,0l-1.54.75.22-5.25c4.37-.19,26.6-.82,30.66,5.83,4.6,7.54,25.43,46.45,25.64,46.84a.38.38,0,0,0,.34.21L346,243.63V262C323.11,264.84,274.67,270.84,271.56,270.53ZM390.32,250.6c.08,1.89-1.2,4-3.69,6.17-4.29,3.69-5.76,4-12,4.7s-16.74-1-16.85-1h-.11l-3.38.43v-17.2c4.95-3.29,17.87-11.25,21-10.43l.17.07c.13.21.25.44.38.65.45,3-7.46,10.53-10.7,13.3a.4.4,0,0,0,.33.7c6.61-1.19,19.86-2.91,22.67-.88A4.55,4.55,0,0,1,390.32,250.6ZM366.76,247c.43-.38.95-.85,1.53-1.39h9.77C373.61,245.9,369,246.6,366.76,247Z"/></g></g></svg>